<?xml version="1.0" encoding="UTF-8"?>
<svg version="1.1" xmlns="http://www.w3.org/2000/svg" width="60" height="59">
<path d="M0 0 C19.8 0 39.6 0 60 0 C60 19.47 60 38.94 60 59 C40.2 59 20.4 59 0 59 C0 39.53 0 20.06 0 0 Z " fill="#FBFBFA" transform="translate(0,0)"/>
<path d="M0 0 C1.38294718 0.01329757 2.76582404 0.03715018 4.1484375 0.0703125 C4.85484375 0.07933594 5.56125 0.08835937 6.2890625 0.09765625 C8.03399848 0.12123647 9.77876045 0.15710789 11.5234375 0.1953125 C10.96377356 4.34526622 10.02423855 7.75953554 8.2734375 11.55859375 C7.83 12.52732422 7.3865625 13.49605469 6.9296875 14.49414062 C6.23359375 15.9859082 6.23359375 15.9859082 5.5234375 17.5078125 C4.82734375 19.02858398 4.82734375 19.02858398 4.1171875 20.58007812 C0.68019216 28.03855784 0.68019216 28.03855784 -0.4765625 29.1953125 C-3.17311104 29.26850871 -5.84347708 29.28773787 -8.5390625 29.2578125 C-9.29767578 29.25330078 -10.05628906 29.24878906 -10.83789062 29.24414062 C-12.71748121 29.2323193 -14.59703149 29.21438328 -16.4765625 29.1953125 C-14.70121132 23.44471844 -12.34246478 17.97079035 -9.9765625 12.4453125 C-9.57308594 11.48753906 -9.16960938 10.52976562 -8.75390625 9.54296875 C-8.36332031 8.62902344 -7.97273438 7.71507812 -7.5703125 6.7734375 C-7.03954102 5.52675293 -7.03954102 5.52675293 -6.49804688 4.25488281 C-4.74846273 0.7272796 -4.01788765 0.22572403 0 0 Z " fill="#421D07" transform="translate(34.4765625,26.8046875)"/>
<path d="M0 0 C1.48831242 0.00667405 2.97660807 0.01863442 4.46484375 0.03515625 C5.22345703 0.03966797 5.98207031 0.04417969 6.76367188 0.04882812 C8.64326246 0.06064945 10.52281274 0.07858547 12.40234375 0.09765625 C10.41694865 6.42769625 8.05528169 12.48461642 5.33984375 18.53515625 C4.81293945 19.73688477 4.81293945 19.73688477 4.27539062 20.96289062 C3.76395508 22.11047852 3.76395508 22.11047852 3.2421875 23.28125 C2.93659912 23.96759521 2.63101074 24.65394043 2.31616211 25.36108398 C1.40234375 27.09765625 1.40234375 27.09765625 -0.59765625 29.09765625 C-3.17829754 29.2426361 -5.64709509 29.2844317 -8.22265625 29.22265625 C-9.28226563 29.20912109 -9.28226563 29.20912109 -10.36328125 29.1953125 C-12.10821723 29.17173228 -13.8529792 29.13586086 -15.59765625 29.09765625 C-14.96948739 25.32693613 -13.87830556 22.11173526 -12.34765625 18.61328125 C-11.90421875 17.59621094 -11.46078125 16.57914063 -11.00390625 15.53125 C-10.3078125 13.95537109 -10.3078125 13.95537109 -9.59765625 12.34765625 C-8.9015625 10.74857422 -8.9015625 10.74857422 -8.19140625 9.1171875 C-4.24661777 0.11527193 -4.24661777 0.11527193 0 0 Z " fill="#421D07" transform="translate(20.59765625,11.90234375)"/>
<path d="M0 0 C4.95 0 9.9 0 15 0 C13.79462144 7.23227134 11.16562457 12.399336 8 19 C3.05 19 -1.9 19 -7 19 C-5.79462144 11.76772866 -3.16562457 6.600664 0 0 Z " fill="#3F1A03" transform="translate(40,4)"/>
</svg>
