<?xml version="1.0" encoding="UTF-8"?>
<svg version="1.1" xmlns="http://www.w3.org/2000/svg" width="296" height="129">
<path d="M0 0 C97.68 0 195.36 0 296 0 C296 42.57 296 85.14 296 129 C198.32 129 100.64 129 0 129 C0 86.43 0 43.86 0 0 Z " fill="#FBFAFA" transform="translate(0,0)"/>
<path d="M0 0 C5.27945685 -0.12534323 10.55801306 -0.21514362 15.83862305 -0.2746582 C17.62783936 -0.29951511 19.41695732 -0.33341357 21.20581055 -0.37719727 C35.25922071 -0.71208369 49.23511919 -0.08158099 60.4921875 9.54296875 C67.61960566 16.43034433 69.31303272 23.48555271 69.5 33.25 C69.45058717 43.73356489 66.59995434 53.72611442 59.046875 61.34375 C51.13553629 67.74529125 42.85501202 68.98811164 32.96875 68.48046875 C24.72227658 67.482126 19.89681234 63.41970137 14.41015625 57.453125 C13.04231106 55.88347749 13.04231106 55.88347749 11 55 C14.97102158 63.41932941 19.96881017 69.31837535 28.4375 73.4375 C41.23386967 78.01185711 55.83266156 74.91714657 68 70 C68.12359943 74.64467639 68.21433399 79.28839626 68.2746582 83.93432617 C68.2998033 85.51457389 68.33392474 87.09470529 68.37719727 88.67456055 C68.43785708 90.94609232 68.46620678 93.21608744 68.48828125 95.48828125 C68.51408768 96.19463211 68.5398941 96.90098297 68.56648254 97.6287384 C68.56762695 99.63012695 68.56762695 99.63012695 68 103 C61.47792192 108.29334993 53.05515935 108.69401797 45 108 C37.35853797 106.73890904 32.10252389 102.68979551 27 97 C24.71595106 93.79725582 22.81570491 90.48615342 21 87 C20.63261719 86.319375 20.26523438 85.63875 19.88671875 84.9375 C17.19810855 79.78865576 15.08629961 74.4155011 13 69 C12.34 69 11.68 69 11 69 C10.31499757 81.48226647 12.55987961 93.79939806 15 106 C10.38 106 5.76 106 1 106 C1.32379639 103.8977002 1.64759277 101.79540039 1.98120117 99.62939453 C3.22838017 90.72849049 3.30952691 81.90287455 3.30078125 72.9296875 C3.30468255 71.23348895 3.30902008 69.53729136 3.31376648 67.84109497 C3.32116348 64.31313892 3.32098395 60.78528308 3.31567383 57.25732422 C3.30986661 52.77150205 3.32687231 48.28609109 3.3500185 43.80033684 C3.36485232 40.30670845 3.36561488 36.81317717 3.36250877 33.31952286 C3.36301645 31.66677151 3.36814796 30.01401391 3.37832069 28.36129379 C3.43197194 18.43534416 2.78593143 9.6019537 0 0 Z " fill="#401B05" transform="translate(148,10)"/>
<path d="M0 0 C0.83354507 0.00424484 1.66709015 0.00848969 2.52589417 0.01286316 C5.16473936 0.02953561 7.80279541 0.06716517 10.44140625 0.10546875 C12.24022328 0.12053042 14.03905238 0.13421622 15.83789062 0.14648438 C20.2268624 0.17940147 24.61525094 0.23110308 29.00390625 0.29296875 C28.86220505 1.11071777 28.72050385 1.9284668 28.57450867 2.77099609 C27.06739345 12.20854486 26.72422454 21.38512847 26.7734375 30.91796875 C26.77463453 32.478678 26.77508136 34.03938797 26.77482605 35.60009766 C26.77637665 38.84737764 26.7845545 42.09454517 26.7980957 45.34179688 C26.81508298 49.46309418 26.81890899 53.58426869 26.81815052 57.70559692 C26.81842501 60.92131682 26.82395053 64.13701095 26.83115196 67.35272217 C26.8342895 68.87066453 26.83629424 70.38860975 26.83704567 71.90655518 C26.84898918 83.41643897 26.97306877 94.9324744 29.00390625 106.29296875 C24.51999589 106.44151828 20.03739507 106.55027179 15.55175781 106.62255859 C14.02676442 106.65269552 12.50194388 106.69361483 10.97753906 106.74560547 C8.78276984 106.81857368 6.59029374 106.85245015 4.39453125 106.87890625 C3.37555756 106.92535782 3.37555756 106.92535782 2.33599854 106.9727478 C0.39550781 106.97412109 0.39550781 106.97412109 -2.99609375 106.29296875 C-7.23729972 101.30609841 -7.61356378 97.64824399 -7.37890625 91.3203125 C-6.27421479 82.58423207 -1.07989371 76.32934808 4.30175781 69.69238281 C5.27238827 68.49219792 6.23997787 67.28954871 7.20483398 66.0847168 C8.17320356 64.87683916 9.14895144 63.67482836 10.13305664 62.47973633 C14.07150633 57.57458258 17.53692209 52.42026962 17.19140625 45.85546875 C17.12953125 44.67984375 17.06765625 43.50421875 17.00390625 42.29296875 C16.53082031 43.11539063 16.05773438 43.9378125 15.5703125 44.78515625 C7.87764787 57.77121388 -1.09965918 69.28923572 -15.99609375 74.29296875 C-17.92512507 74.56891655 -19.86499695 74.77746778 -21.80859375 74.91796875 C-23.27232422 75.03011719 -23.27232422 75.03011719 -24.765625 75.14453125 C-25.50167969 75.19351563 -26.23773438 75.2425 -26.99609375 75.29296875 C-26.34294466 85.41677958 -22.62450699 93.36177247 -17.94921875 102.26171875 C-16.99609375 104.29296875 -16.99609375 104.29296875 -16.99609375 106.29296875 C-20.29609375 106.29296875 -23.59609375 106.29296875 -26.99609375 106.29296875 C-37.82855412 84.00786897 -38.46192952 47.23881548 -30.890625 23.8828125 C-27.09197888 14.2634717 -22.31030061 6.52244131 -12.92871094 1.72412109 C-8.60682834 -0.08741701 -4.6306803 -0.09018121 0 0 Z " fill="#411C06" transform="translate(46.99609375,9.70703125)"/>
<path d="M0 0 C1.25244003 0.00424484 1.25244003 0.00424484 2.53018188 0.00857544 C5.17912541 0.01970949 7.82772234 0.04480123 10.4765625 0.0703125 C12.27994301 0.08035107 14.08332886 0.08947538 15.88671875 0.09765625 C20.29179883 0.1196266 24.69662203 0.15410929 29.1015625 0.1953125 C28.88921463 0.92718781 28.67686676 1.65906311 28.45808411 2.41311646 C25.92146839 12.05499494 25.67727953 21.08931261 25.73828125 31 C25.73880167 32.69426472 25.73827695 34.38853005 25.73677063 36.08279419 C25.73685973 39.61437125 25.7471584 43.1457171 25.76538086 46.67724609 C25.78803035 51.16062566 25.78861145 55.64366753 25.78186321 60.12708855 C25.77849006 63.62080789 25.78521615 67.11445296 25.79499245 70.60815811 C25.79878999 72.25924412 25.80001582 73.91033848 25.7984066 75.56142807 C25.79671328 85.9505129 26.44495168 95.92810297 28.1015625 106.1953125 C23.59912925 106.31383857 19.09798512 106.40965378 14.59448242 106.4699707 C13.06273189 106.49511328 11.53110133 106.52923297 9.99975586 106.57250977 C7.79771366 106.63318192 5.59725676 106.66152141 3.39453125 106.68359375 C2.71005417 106.70940018 2.02557709 106.7352066 1.32035828 106.76179504 C-0.62036133 106.76293945 -0.62036133 106.76293945 -3.8984375 106.1953125 C-5.79174805 103.78979492 -5.79174805 103.78979492 -6.8984375 101.1953125 C-7.3934375 100.2053125 -7.3934375 100.2053125 -7.8984375 99.1953125 C-9.06539586 89.99259021 -7.30266136 83.65494617 -1.8984375 76.1953125 C0.53679391 73.24800384 3.08100329 70.39766715 5.62133789 67.54101562 C12.23259031 59.97582877 17.89878719 51.53685338 18.1015625 41.1953125 C14.89334572 44.12576159 12.98984027 46.98597946 10.9765625 50.8203125 C4.909148 61.40601439 -2.93141926 68.03548274 -13.8984375 73.1953125 C-14.8884375 73.6903125 -14.8884375 73.6903125 -15.8984375 74.1953125 C-17.93898755 74.26596867 -19.98178007 74.27953226 -22.0234375 74.2578125 C-23.11914062 74.24878906 -24.21484375 74.23976563 -25.34375 74.23046875 C-26.60832031 74.21306641 -26.60832031 74.21306641 -27.8984375 74.1953125 C-27.8984375 83.9436445 -23.88863527 91.64338435 -19.73046875 100.24755859 C-18.8984375 102.1953125 -18.8984375 102.1953125 -17.8984375 106.1953125 C-21.1984375 106.1953125 -24.4984375 106.1953125 -27.8984375 106.1953125 C-37.24443425 80.1973114 -40.44440662 43.81300104 -29.3125 17.96875 C-25.40014802 10.29535247 -20.41490761 4.45697066 -12.33544922 1.14453125 C-8.11622966 -0.02071421 -4.35107842 -0.05612634 0 0 Z " fill="#411B06" transform="translate(256.8984375,9.8046875)"/>
<path d="M0 0 C10.23 0 20.46 0 31 0 C29.46582486 19.94427677 22.20189589 32.57035652 9.86328125 47.62890625 C5.91269891 52.65616721 2.42152632 57.42868948 1.375 63.8125 C2.11093523 67.5657697 3.3140935 69.3140935 6 72 C9.21653279 73.6082664 12.72151529 73.14179685 16.25390625 73.1328125 C17.06995834 73.13376923 17.88601044 73.13472595 18.72679138 73.13571167 C20.45254595 73.13639256 22.17830308 73.13454461 23.90405273 73.13037109 C26.55523383 73.12501468 29.20624603 73.13032267 31.85742188 73.13671875 C33.53125038 73.13605809 35.20507877 73.13477717 36.87890625 73.1328125 C37.67680069 73.13483673 38.47469513 73.13686096 39.29676819 73.13894653 C42.94795276 73.46981962 42.94795276 73.46981962 46 72 C46.10858314 70.59178145 46.14902094 69.17821579 46.16113281 67.76586914 C46.17074036 66.86304703 46.1803479 65.96022491 46.19024658 65.03004456 C46.19449646 64.04173141 46.19874634 63.05341827 46.203125 62.03515625 C46.21167511 60.50319862 46.21167511 60.50319862 46.22039795 58.94029236 C46.22987728 56.76204469 46.23639348 54.58378249 46.24023438 52.40551758 C46.24978732 49.13530518 46.28071568 45.86576358 46.3125 42.59570312 C46.37521774 30.05155624 45.51319536 18.28517746 43 6 C42.505 3.03 42.505 3.03 42 0 C47.28 0 52.56 0 58 0 C57.71560059 1.39605469 57.43120117 2.79210938 57.13818359 4.23046875 C54.24219494 19.33402044 53.43209681 33.9263999 53.58837891 49.28466797 C53.62524335 53.02468911 53.62939382 56.76372072 53.62890625 60.50390625 C53.67375909 75.99582148 54.22632363 90.90529454 58 106 C52.87713 106.04972917 47.75440298 106.08587445 42.63134766 106.10986328 C40.89141388 106.11987218 39.1514967 106.13348343 37.41162109 106.15087891 C34.89937215 106.17535354 32.38734712 106.1865344 29.875 106.1953125 C29.10696045 106.20563507 28.3389209 106.21595764 27.54760742 106.22659302 C21.45330085 106.22783682 15.71603008 105.61668457 10.375 102.4375 C-4.42809185 87.24485311 -5.36829889 67.17456315 -5.31567383 47.19458008 C-5.31251612 44.70023703 -5.33607477 42.20708825 -5.36132812 39.71289062 C-5.41505481 26.02100608 -3.76365592 13.17279572 0 0 Z " fill="#401A04" transform="translate(87,10)"/>
<path d="M0 0 C0.33 0 0.66 0 1 0 C1.87742212 7.72131462 -1.20986239 14.81105345 -5.45703125 21.1875 C-11.65892934 28.7803251 -19.45564872 32.31589275 -29.1015625 33.32421875 C-35.40535996 33.55103032 -39.24639647 33.25322421 -44 29 C-46 27 -46 27 -46.4375 23.1875 C-46.37157673 19.56172025 -46.04701662 19.05666105 -43.5625 16.0625 C-42.716875 15.381875 -41.87125 14.70125 -41 14 C-40.67 13.67 -40.34 13.34 -40 13 C-38.37747508 12.90113647 -36.75052727 12.87028833 -35.125 12.875 C-34.24070313 12.87242188 -33.35640625 12.86984375 -32.4453125 12.8671875 C-30 13 -30 13 -27 14 C-19.70357124 14.72964288 -13.13122294 14.30971399 -7 10 C-4.14861169 6.96252108 -1.86221638 3.72443277 0 0 Z " fill="#F7F6F5" transform="translate(275,28)"/>
<path d="M0 0 C0.33 0 0.66 0 1 0 C0.79008439 8.96912148 -1.5623365 16.04668698 -7.5 22.875 C-8.325 23.57625 -9.15 24.2775 -10 25 C-10.680625 25.680625 -11.36125 26.36125 -12.0625 27.0625 C-19.74318815 32.1284858 -28.87932705 34.25959377 -38 33 C-41.70256414 31.45726494 -44.15606524 29.59082033 -46 26 C-46.45495638 22.81530534 -46.71048915 21.01510101 -46 18 C-43.29414407 14.58207672 -41.82475713 13.24674389 -37.515625 12.6640625 C-34.23870355 12.61558733 -31.17659505 12.70528007 -27.98828125 13.50390625 C-21.27648024 15.17855994 -15.03314896 14.26657448 -8.90625 11.203125 C-5.25634131 8.89949411 -3.48625547 5.81042578 -1.3125 2.1875 C-0.879375 1.465625 -0.44625 0.74375 0 0 Z " fill="#F9F8F7" transform="translate(66,28)"/>
<path d="M0 0 C3.72283842 0.26591703 6.45460516 1.12099444 9.625 3 C16.51655011 7.08388155 25.06527509 7.18709466 32.79296875 5.328125 C34.43665577 4.78787438 36.07747314 4.23878966 37.71484375 3.6796875 C42.14558785 2.36182515 46.20541465 2.19243659 50.5 4.125 C52 6 52 6 52.5 8.9375 C52 12 52 12 50.5625 14.1875 C43.47299681 19.20202665 35.49251145 19.52122092 27.0625 19.5 C26.04220703 19.52835938 25.02191406 19.55671875 23.97070312 19.5859375 C15.09235398 19.6086008 8.09462819 16.98894154 1.375 11.125 C-1 8 -1 8 -1.4375 4.1875 C-1 1 -1 1 0 0 Z " fill="#F8F6F5" transform="translate(159,34)"/>
<path d="M0 0 C0.33 0 0.66 0 1 0 C0.67 3.3 0.34 6.6 0 10 C-0.99 9.01 -1.98 8.02 -3 7 C-1.125 1.125 -1.125 1.125 0 0 Z " fill="#D0C7C1" transform="translate(66,28)"/>
</svg>
